<svg width="800" height="480" xmlns="http://www.w3.org/2000/svg" xmlns:svg="http://www.w3.org/2000/svg">
 <!-- Created with SVG-edit - https://github.com/SVG-Edit/svgedit-->
 <g class="classes layer">
  <title>classes</title>
  <rect fill="#d4ffaa" height="60" id="svg_1" stroke="#000000" width="300" x="50" y="30"/>
  <text fill="#000000" font-family="Serif" font-size="24" id="svg_2" stroke="#000000" stroke-width="0" text-anchor="start" x="60" xml:space="preserve" y="70">StockDataMultipleCode</text>
  <rect fill="#d4ffaa" height="60" id="svg_3" stroke="#000000" width="300" x="450" y="30"/>
  <text fill="#000000" font-family="Serif" font-size="24" id="svg_4" stroke="#000000" stroke-width="0" text-anchor="start" x="460" xml:space="preserve" y="70">StockDataSingleCode</text>
  <rect fill="#aad4ff" height="60" id="svg_5" stroke="#000000" width="250" x="450" y="120"/>
  <text fill="#000000" font-family="Serif" font-size="24" id="svg_7" stroke="#000000" stroke-width="0" text-anchor="start" x="460" xml:space="preserve" y="160">Processed (Single)</text>
  <rect fill="#aad4ff" height="60" id="svg_6" stroke="#000000" width="300" x="450" y="210"/>
  <text fill="#000000" font-family="Serif" font-size="24" id="svg_8" stroke="#000000" stroke-width="0" text-anchor="start" x="460" xml:space="preserve" y="250">Processed (Multiple)</text>
  <rect fill="#d4aaff" height="60" id="svg_9" stroke="#000000" width="250" x="450" y="300"/>
  <text fill="#000000" font-family="Serif" font-size="24" id="svg_10" stroke="#000000" stroke-width="0" text-anchor="start" x="460" xml:space="preserve" y="340">Estimated (Single)</text>
  <rect fill="#d4aaff" height="60" id="svg_11" stroke="#000000" width="300" x="450" y="390"/>
  <text fill="#000000" font-family="Serif" font-size="24" id="svg_12" stroke="#000000" stroke-width="0" text-anchor="start" x="460" xml:space="preserve" y="430">Estimated (Multiple)</text>
 </g>
 <g class="allows1 layer">
  <title>direct allows</title>
  <path d="m400,60l-14.47022,-14.48526l9.52978,0l14.47022,14.48526l-14.47022,14.48525l-9.52978,0l14.47022,-14.48525z" fill="#000000" id="svg_13" stroke="#000000"/>
  <path d="m601,105.00001l-14.47022,-14.48526l9.52978,0l14.47022,14.48526l-14.47022,14.48525l-9.52978,0l14.47022,-14.48525z" fill="#000000" id="svg_14" stroke="#000000" transform="rotate(90 598.53 105)"/>
  <path d="m601,195.00001l-14.47022,-14.48526l9.52978,0l14.47022,14.48526l-14.47022,14.48525l-9.52978,0l14.47022,-14.48525z" fill="#000000" id="svg_15" stroke="#000000" transform="rotate(90 598.53 195)"/>
  <path d="m601,285.00001l-14.47022,-14.48526l9.52978,0l14.47022,14.48526l-14.47022,14.48525l-9.52978,0l14.47022,-14.48525z" fill="#000000" id="svg_16" stroke="#000000" transform="rotate(90 598.53 285)"/>
  <path d="m601,375.00001l-14.47022,-14.48526l9.52978,0l14.47022,14.48526l-14.47022,14.48525l-9.52978,0l14.47022,-14.48525z" fill="#000000" id="svg_17" stroke="#000000" transform="rotate(90 598.53 375)"/>
  <path d="m731.47021,195.00001l-14.47022,-14.48526l9.52978,0l14.47022,14.48526l-14.47022,14.48525l-9.52978,0l14.47022,-14.48525z" fill="#000000" id="svg_18" stroke="#000000" transform="rotate(90 729 195)"/>
  <path d="m731.47021,375.00001l-14.47022,-14.48526l9.52978,0l14.47022,14.48526l-14.47022,14.48525l-9.52978,0l14.47022,-14.48525z" fill="#000000" id="svg_19" stroke="#000000" transform="rotate(90 729 375)"/>
  <rect fill="#000000" height="95" id="svg_20" stroke="#000000" width="10" x="724" y="105"/>
  <rect fill="#000000" height="95" id="svg_21" stroke="#000000" width="10" x="724" y="285"/>
 </g>
 <g class="allows2 layer">
  <title>shortcut allows</title>
  <path d="m400,240l-14.47022,-14.48526l9.52978,0l14.47022,14.48526l-14.47022,14.48525l-9.52978,0l14.47022,-14.48525z" fill="#000000" id="svg_22" stroke="#000000"/>
  <path d="m400,420l-14.47022,-14.48526l9.52978,0l14.47022,14.48526l-14.47022,14.48525l-9.52978,0l14.47022,-14.48525z" fill="#000000" id="svg_23" stroke="#000000"/>
  <rect fill="#000000" height="136.99999" id="svg_24" stroke="#000000" width="10" x="300" y="105"/>
  <rect fill="#000000" height="316.00001" id="svg_25" stroke="#000000" transform="matrix(1 0 0 1 0 0)" width="10" x="217" y="105"/>
  <rect fill="#000000" height="10" id="svg_26" stroke="#000000" width="99.00001" x="299.99999" y="234.5"/>
  <rect fill="#000000" height="10" id="svg_27" stroke="#000000" width="182.5" x="217" y="415"/>
 </g>
</svg>
